<svg xmlns="http://www.w3.org/2000/svg" viewBox="0 0 696 461" fill="currentColor">
  <g transform="translate(0,461) scale(0.1,-0.1)">
    <path d="M2005 4514 c-160 -15 -333 -39 -401 -54 -480 -111 -827 -367 -1021 -755 -100 -199 -201 -631 -220 -941 l-6 -104 94 40 c201 86 388 144 564 174 224 37 247 39 629 49 l70 2 18 105 c51 287 76 341 188 408 41 24 54 27 145 27 115 0 150 -13 185 -70 28 -45 36 -136 22 -225 -25 -149 -41 -237 -51 -267 -5 -18 -6 -35 -3 -37 4 -2 32 -7 62 -11 80 -10 312 -61 410 -89 309 -88 376 -110 634 -200 71 -26 132 -46 136 -46 7 0 17 49 60 305 17 99 40 230 51 290 96 534 -15 928 -325 1149 -166 118 -374 195 -631 232 -95 14 -522 27 -610 18z"/>
    <path d="M5245 4510 c-565 -54 -971 -253 -1236 -607 -87 -117 -184 -317 -222 -458 -3 -11 -13 -45 -21 -75 -9 -30 -32 -149 -51 -265 -20 -115 -45 -262 -56 -325 -29 -159 -38 -218 -45 -270 -6 -45 -6 -46 27 -57 19 -6 126 -46 239 -88 477 -179 965 -330 981 -304 4 6 12 46 19 88 25 159 92 547 140 816 17 94 35 195 40 225 32 183 161 291 330 277 83 -7 122 -26 154 -75 41 -63 42 -118 6 -317 -6 -33 -17 -98 -25 -145 -7 -47 -21 -125 -30 -175 -9 -49 -23 -126 -30 -170 -8 -44 -18 -105 -24 -135 -8 -49 -16 -89 -51 -285 -23 -128 -32 -196 -25 -203 3 -4 115 -7 248 -7 261 1 376 14 590 70 188 49 479 169 503 206 6 11 25 116 69 384 8 50 22 128 30 175 76 434 98 638 85 797 -18 217 -59 338 -168 492 -154 219 -424 360 -792 416 -123 19 -547 28 -685 15z"/>
    <path d="M1435 2763 c-319 -25 -346 -29 -555 -80 -228 -56 -520 -172 -520 -207 0 -29 32 -178 50 -235 26 -82 54 -135 115 -217 127 -170 308 -274 575 -331 131 -28 461 -25 587 5 114 27 179 52 249 97 47 30 74 42 74 33 0 -2 -7 -41 -15 -88 -9 -47 -27 -148 -41 -225 -14 -77 -35 -162 -48 -190 -55 -120 -182 -186 -315 -164 -69 11 -116 43 -143 97 -17 37 -20 55 -15 110 4 42 3 70 -4 79 -16 19 -1261 19 -1277 0 -16 -18 -32 -190 -32 -332 0 -298 68 -492 234 -663 240 -249 652 -367 1222 -349 552 18 932 154 1262 453 83 76 213 243 266 344 97 184 156 371 196 625 11 72 31 195 45 275 25 143 50 288 65 385 4 28 13 77 19 109 6 32 8 62 6 67 -3 4 -20 11 -38 14 -17 4 -36 11 -42 15 -5 4 -28 13 -50 20 -22 6 -130 43 -240 80 -110 38 -263 85 -340 105 -76 20 -142 38 -146 40 -6 5 -326 69 -396 80 -36 6 -47 3 -76 -19 -50 -38 -102 -57 -165 -59 -107 -2 -181 33 -217 103 l-16 30 -117 -2 c-64 -1 -135 -3 -157 -5z"/>
    <path d="M3570 2289 c-1 -36 -44 -300 -106 -644 -83 -460 -74 -732 32 -962 65 -144 172 -263 319 -358 218 -141 485 -209 870 -221 643 -21 1130 130 1461 452 127 124 191 211 272 370 97 189 144 357 197 699 8 50 19 117 25 150 18 97 39 249 35 253 -2 2 -14 -3 -27 -12 -49 -31 -279 -111 -435 -150 -224 -56 -480 -82 -712 -72 -85 4 -159 8 -164 9 -11 2 -31 -83 -62 -263 -47 -276 -134 -380 -319 -380 -76 0 -122 13 -154 42 -73 69 -72 142 7 563 6 28 13 68 16 91 l6 41 -48 13 c-338 88 -485 135 -872 277 -311 114 -341 123 -341 102z"/>
  </g>
</svg>
