<svg width="216" height="216" viewBox="0 0 216 216" fill="none" xmlns="http://www.w3.org/2000/svg">
<circle cx="108" cy="108" r="100.5" fill="#F43630" stroke="white" stroke-width="15"/>
<path d="M127.649 94.75C124.737 94.75 122.441 92.2705 122.664 89.3665L126.586 38.3835C126.809 35.4795 124.513 33 121.601 33H120.027C118.438 33 116.944 33.755 116.001 35.034L56.8697 115.284C54.4371 118.585 56.7942 123.25 60.895 123.25H88.3506C91.2632 123.25 93.5593 125.73 93.3359 128.633L89.4141 179.617C89.1907 182.52 91.4868 185 94.3994 185H95.9735C97.5622 185 99.0563 184.245 99.9987 182.966L159.13 102.716C161.563 99.4147 159.206 94.75 155.105 94.75H127.649Z" fill="white"/>
</svg>
